<mxfile host="app.diagrams.net" agent="Mozilla/5.0 (Windows NT 10.0; Win64; x64) AppleWebKit/537.36 (KHTML, like Gecko) Chrome/131.0.0.0 Safari/537.36" version="25.0.1">
  <diagram id="yzsHVUbP4xTEYUeFhgUN" name="Страница — 1">
    <mxGraphModel dx="1225" dy="551" grid="1" gridSize="10" guides="1" tooltips="1" connect="1" arrows="1" fold="1" page="0" pageScale="1" pageWidth="827" pageHeight="1169" math="0" shadow="0">
      <root>
        <mxCell id="0" />
        <mxCell id="1" parent="0" />
        <mxCell id="tR16wjdvPBlmOT9J2wwr-1" value="" style="ellipse;whiteSpace=wrap;html=1;aspect=fixed;" vertex="1" parent="1">
          <mxGeometry x="120" y="320" width="80" height="80" as="geometry" />
        </mxCell>
        <mxCell id="tR16wjdvPBlmOT9J2wwr-2" value="" style="ellipse;whiteSpace=wrap;html=1;aspect=fixed;" vertex="1" parent="1">
          <mxGeometry x="360" y="200" width="80" height="80" as="geometry" />
        </mxCell>
        <mxCell id="tR16wjdvPBlmOT9J2wwr-3" value="" style="ellipse;whiteSpace=wrap;html=1;aspect=fixed;" vertex="1" parent="1">
          <mxGeometry x="360" y="440" width="80" height="80" as="geometry" />
        </mxCell>
        <mxCell id="tR16wjdvPBlmOT9J2wwr-4" value="" style="endArrow=classic;html=1;rounded=0;entryX=0.073;entryY=0.76;entryDx=0;entryDy=0;exitX=1;exitY=0.5;exitDx=0;exitDy=0;entryPerimeter=0;" edge="1" parent="1" source="tR16wjdvPBlmOT9J2wwr-1" target="tR16wjdvPBlmOT9J2wwr-2">
          <mxGeometry width="50" height="50" relative="1" as="geometry">
            <mxPoint x="270" y="410" as="sourcePoint" />
            <mxPoint x="320" y="360" as="targetPoint" />
          </mxGeometry>
        </mxCell>
        <mxCell id="tR16wjdvPBlmOT9J2wwr-5" value="" style="endArrow=classic;html=1;rounded=0;exitX=0;exitY=0.5;exitDx=0;exitDy=0;" edge="1" parent="1" source="tR16wjdvPBlmOT9J2wwr-2">
          <mxGeometry width="50" height="50" relative="1" as="geometry">
            <mxPoint x="270" y="410" as="sourcePoint" />
            <mxPoint x="200" y="340" as="targetPoint" />
          </mxGeometry>
        </mxCell>
        <mxCell id="tR16wjdvPBlmOT9J2wwr-6" value="" style="endArrow=classic;html=1;rounded=0;entryX=1;entryY=1;entryDx=0;entryDy=0;exitX=0.027;exitY=0.371;exitDx=0;exitDy=0;exitPerimeter=0;" edge="1" parent="1" source="tR16wjdvPBlmOT9J2wwr-3" target="tR16wjdvPBlmOT9J2wwr-1">
          <mxGeometry width="50" height="50" relative="1" as="geometry">
            <mxPoint x="194" y="500" as="sourcePoint" />
            <mxPoint x="360" y="401" as="targetPoint" />
          </mxGeometry>
        </mxCell>
        <mxCell id="tR16wjdvPBlmOT9J2wwr-7" value="" style="endArrow=classic;html=1;rounded=0;entryX=0;entryY=0;entryDx=0;entryDy=0;" edge="1" parent="1" target="tR16wjdvPBlmOT9J2wwr-3">
          <mxGeometry width="50" height="50" relative="1" as="geometry">
            <mxPoint x="201" y="370" as="sourcePoint" />
            <mxPoint x="194" y="480" as="targetPoint" />
          </mxGeometry>
        </mxCell>
        <mxCell id="tR16wjdvPBlmOT9J2wwr-8" value="&lt;b&gt;&lt;font style=&quot;font-size: 18px;&quot;&gt;1&lt;/font&gt;&lt;/b&gt;" style="text;html=1;align=center;verticalAlign=middle;whiteSpace=wrap;rounded=0;" vertex="1" parent="1">
          <mxGeometry x="130" y="345" width="60" height="30" as="geometry" />
        </mxCell>
        <mxCell id="tR16wjdvPBlmOT9J2wwr-9" value="&lt;b&gt;&lt;font style=&quot;font-size: 18px;&quot;&gt;2&lt;/font&gt;&lt;/b&gt;" style="text;html=1;align=center;verticalAlign=middle;whiteSpace=wrap;rounded=0;" vertex="1" parent="1">
          <mxGeometry x="370" y="225" width="60" height="30" as="geometry" />
        </mxCell>
        <mxCell id="tR16wjdvPBlmOT9J2wwr-10" value="&lt;span style=&quot;font-size: 18px;&quot;&gt;&lt;b&gt;3&lt;/b&gt;&lt;/span&gt;" style="text;html=1;align=center;verticalAlign=middle;whiteSpace=wrap;rounded=0;" vertex="1" parent="1">
          <mxGeometry x="370" y="465" width="60" height="30" as="geometry" />
        </mxCell>
        <mxCell id="tR16wjdvPBlmOT9J2wwr-11" value="" style="shape=ellipse;html=1;dashed=0;whiteSpace=wrap;aspect=fixed;perimeter=ellipsePerimeter;" vertex="1" parent="1">
          <mxGeometry x="-40" y="345" width="30" height="30" as="geometry" />
        </mxCell>
        <mxCell id="tR16wjdvPBlmOT9J2wwr-13" value="&lt;font style=&quot;font-size: 18px;&quot;&gt;&lt;b&gt;&quot;0&quot;&lt;/b&gt;&lt;/font&gt;" style="text;html=1;align=center;verticalAlign=middle;whiteSpace=wrap;rounded=0;" vertex="1" parent="1">
          <mxGeometry x="-55" y="315" width="60" height="30" as="geometry" />
        </mxCell>
        <mxCell id="tR16wjdvPBlmOT9J2wwr-14" value="&lt;b&gt;&lt;font style=&quot;font-size: 18px;&quot;&gt;p&lt;sub&gt;10&lt;/sub&gt;&amp;nbsp;= 0,5&lt;/font&gt;&lt;/b&gt;" style="text;html=1;align=center;verticalAlign=middle;whiteSpace=wrap;rounded=0;" vertex="1" parent="1">
          <mxGeometry x="50" y="290" width="90" height="30" as="geometry" />
        </mxCell>
        <mxCell id="tR16wjdvPBlmOT9J2wwr-15" value="&lt;b&gt;&lt;font style=&quot;font-size: 18px;&quot;&gt;p&lt;sub&gt;12&lt;/sub&gt;&amp;nbsp;= 0,25&lt;/font&gt;&lt;/b&gt;" style="text;html=1;align=center;verticalAlign=middle;whiteSpace=wrap;rounded=0;" vertex="1" parent="1">
          <mxGeometry x="280" y="300" width="90" height="30" as="geometry" />
        </mxCell>
        <mxCell id="tR16wjdvPBlmOT9J2wwr-16" value="&lt;b&gt;&lt;font style=&quot;font-size: 18px;&quot;&gt;p&lt;sub&gt;13&lt;/sub&gt;&amp;nbsp;= 0,25&lt;/font&gt;&lt;/b&gt;" style="text;html=1;align=center;verticalAlign=middle;whiteSpace=wrap;rounded=0;" vertex="1" parent="1">
          <mxGeometry x="280" y="380" width="90" height="30" as="geometry" />
        </mxCell>
        <mxCell id="tR16wjdvPBlmOT9J2wwr-17" value="&lt;span style=&quot;font-size: 18px;&quot;&gt;&lt;b&gt;b&lt;sub&gt;1&lt;/sub&gt;&amp;nbsp;= 5&lt;/b&gt;&lt;/span&gt;" style="text;html=1;align=center;verticalAlign=middle;whiteSpace=wrap;rounded=0;" vertex="1" parent="1">
          <mxGeometry x="130" y="400" width="60" height="30" as="geometry" />
        </mxCell>
        <mxCell id="tR16wjdvPBlmOT9J2wwr-18" value="&lt;span style=&quot;font-size: 18px;&quot;&gt;&lt;b&gt;b&lt;sub&gt;2&lt;/sub&gt;&amp;nbsp;= 8,5&lt;/b&gt;&lt;/span&gt;" style="text;html=1;align=center;verticalAlign=middle;whiteSpace=wrap;rounded=0;" vertex="1" parent="1">
          <mxGeometry x="370" y="170" width="80" height="30" as="geometry" />
        </mxCell>
        <mxCell id="tR16wjdvPBlmOT9J2wwr-19" value="&lt;span style=&quot;font-size: 18px;&quot;&gt;&lt;b&gt;b&lt;sub&gt;3&lt;/sub&gt;&amp;nbsp;= 5&lt;/b&gt;&lt;/span&gt;" style="text;html=1;align=center;verticalAlign=middle;whiteSpace=wrap;rounded=0;" vertex="1" parent="1">
          <mxGeometry x="370" y="520" width="60" height="30" as="geometry" />
        </mxCell>
        <mxCell id="tR16wjdvPBlmOT9J2wwr-20" value="" style="endArrow=classic;html=1;rounded=0;exitX=1;exitY=0.5;exitDx=0;exitDy=0;entryX=0;entryY=0.5;entryDx=0;entryDy=0;" edge="1" parent="1" source="tR16wjdvPBlmOT9J2wwr-11" target="tR16wjdvPBlmOT9J2wwr-1">
          <mxGeometry width="50" height="50" relative="1" as="geometry">
            <mxPoint x="180" y="400" as="sourcePoint" />
            <mxPoint x="230" y="350" as="targetPoint" />
          </mxGeometry>
        </mxCell>
        <mxCell id="tR16wjdvPBlmOT9J2wwr-22" value="" style="endArrow=classic;html=1;rounded=0;entryX=1;entryY=0;entryDx=0;entryDy=0;exitX=0;exitY=0;exitDx=0;exitDy=0;" edge="1" parent="1" source="tR16wjdvPBlmOT9J2wwr-1" target="tR16wjdvPBlmOT9J2wwr-11">
          <mxGeometry width="50" height="50" relative="1" as="geometry">
            <mxPoint x="180" y="400" as="sourcePoint" />
            <mxPoint x="230" y="350" as="targetPoint" />
            <Array as="points">
              <mxPoint x="70" y="330" />
            </Array>
          </mxGeometry>
        </mxCell>
      </root>
    </mxGraphModel>
  </diagram>
</mxfile>
